<?xml version="1.0" encoding="UTF-8" standalone="no"?>
<!DOCTYPE svg PUBLIC "-//W3C//DTD SVG 1.1//EN" "http://www.w3.org/Graphics/SVG/1.1/DTD/svg11.dtd">
<svg height="1024.0pt" stroke-miterlimit="10" style="fill-rule:nonzero;clip-rule:evenodd;stroke-linecap:round;stroke-linejoin:round;" version="1.1" viewBox="100 50 800 900" width="1024.0pt" xml:space="preserve" xmlns="http://www.w3.org/2000/svg" xmlns:xlink="http://www.w3.org/1999/xlink">
<defs>
<linearGradient gradientTransform="matrix(16.659 -817.221 583.662 11.898 507.947 916.944)" gradientUnits="userSpaceOnUse" id="LinearGradient" x1="0" x2="1" y1="0" y2="0">
<stop offset="0" stop-color="#f34d3f"/>
<stop offset="1" stop-color="#f88220"/>
</linearGradient>
</defs>
<g id="Layer-8">
<path d="M540.125 82.4375C535.975 84.0675 399.283 177.519 365.562 371.719C364.343 378.779 359.701 387.785 345.281 386.625C324.481 384.955 314.125 367.129 329.125 296.219C207.805 451.579 175.409 638.475 260.219 757.875C260.019 761.265 243.219 839.625 243.219 839.625C243.219 839.625 302.532 813.201 304.312 812.031C410.533 956.951 612.107 955.959 723.188 812.969C723.728 813.059 781.656 838.094 781.656 838.094C781.656 838.094 767.084 758.099 766.344 756.719C811.184 704.039 876.962 494.566 656.812 229.656C659.422 241.796 679.516 323.921 641.406 327.781C583.006 333.691 517.945 168.948 540.125 82.4375ZM495.106 298.372C487.853 356.12 529.708 439.104 560.512 428.684C567.255 425.166 579.669 413.067 570.825 370.966C577.472 376.096 598.548 400.383 615.793 428.872C620.206 436.162 624.386 443.678 627.981 451.278C628.095 451.52 628.242 451.755 628.356 451.997C623.982 451.997 619.791 452.192 615.7 452.497C614.795 452.564 613.934 452.666 613.043 452.747C610.073 453.017 607.171 453.37 604.356 453.778C602.955 453.982 601.593 454.2 600.231 454.434C597.91 454.834 595.658 455.266 593.45 455.747C592.309 455.996 591.155 456.228 590.043 456.497C586.937 457.246 583.944 458.055 581.075 458.934C580.955 458.971 580.818 458.992 580.7 459.028C580.628 459.051 580.553 459.068 580.481 459.091C580.44 459.103 580.397 459.109 580.356 459.122C580.01 459.23 579.667 459.356 579.325 459.466C576.127 460.488 573.184 461.611 570.293 462.747C566.341 464.3 562.634 465.901 559.262 467.559C557.905 468.228 556.774 468.888 555.512 469.559C553.322 470.722 551.259 471.857 549.356 472.997C548.205 473.687 547.088 474.327 546.043 474.997C544.992 475.669 544.269 476.198 543.325 476.841C540.669 478.648 539.095 479.815 537.293 481.247C534.081 483.758 531.686 485.781 530.981 486.466C539.14 494.718 546.693 503.828 553.342 513.41C553.342 514.33 542.068 524.493 535.994 528.507C534.287 525.922 532.357 523.194 530.512 520.716C524.976 513.281 518.856 506.326 512.262 499.872C507.384 495.096 502.199 490.692 496.793 486.528C494.063 484.425 491.224 482.444 488.356 480.528C486.293 479.126 484.198 477.779 482.075 476.466C482.023 476.434 481.97 476.404 481.918 476.372C481.747 476.264 481.56 476.167 481.387 476.059C478.554 474.325 475.698 472.63 472.762 471.059C461.448 464.882 449.129 459.8 435.825 456.528C433.246 455.894 430.657 455.275 428.012 454.778C428.012 446.819 428.525 439.129 429.387 431.653C436.182 372.712 467.855 328.678 495.106 298.372ZM488.688 722.469C494.7 729.933 502.719 739.778 512.906 750.156C518.762 756.122 525.431 762.181 533 767.938C533.129 768.045 535.7 769.997 535.75 770.031C535.824 770.082 535.895 770.137 535.969 770.188C536.452 770.538 536.978 770.872 537.469 771.219C539.448 772.619 541.461 774.004 543.562 775.344C546.109 776.97 548.77 778.544 551.5 780.062C553.844 781.367 556.298 782.604 558.781 783.812C559.43 784.127 560.06 784.443 560.719 784.75C563.309 785.964 566.007 787.093 568.75 788.188C569.181 788.359 569.596 788.551 570.031 788.719C572.893 789.829 575.846 790.85 578.875 791.812C579.29 791.943 579.706 792.06 580.125 792.188C583.411 793.201 586.795 794.12 590.281 794.938C590.301 794.942 590.324 794.933 590.344 794.938C593.933 795.778 597.628 796.513 601.438 797.125C601.612 797.153 601.794 797.161 601.969 797.188C605.76 797.783 609.643 798.28 613.656 798.625C613.708 798.63 613.761 798.652 613.812 798.656C617.075 798.986 620.373 799.174 623.688 799.312C626.041 799.411 628.372 799.593 630.75 799.594C631.117 799.594 631.477 799.565 631.844 799.562C632.172 799.558 632.514 799.539 632.844 799.531C632.992 799.53 633.134 799.503 633.281 799.5C638.65 799.419 643.953 799.049 649.188 798.469C649.374 798.45 649.563 798.425 649.75 798.406C650.581 798.311 651.422 798.264 652.25 798.156C652.334 798.145 652.416 798.136 652.5 798.125C654.55 797.856 656.567 797.499 658.594 797.156C662.597 796.581 666.509 796.134 670.688 795.312C658.609 806.528 644.392 817.907 628.375 828.125C572.251 863.929 493.266 884.675 400.188 828.25C385.889 819.582 371.272 809.226 356.344 796.688C373.79 799.871 389.797 800.292 404.375 799.156C406.526 798.989 408.727 798.863 410.812 798.625C411.304 798.575 411.791 798.523 412.281 798.469C416.068 798.048 419.823 797.511 423.531 796.844C449.486 792.173 473.41 781.55 493.938 766.406C493.861 766.326 493.794 766.237 493.719 766.156C489.571 761.75 485.591 757.165 481.844 752.406C481.838 752.4 481.849 752.382 481.844 752.375C478.092 747.61 474.559 742.682 471.25 737.562C472.05 736.985 486.335 724.868 488.688 722.469C488.745 722.411 488.631 722.527 488.688 722.469Z" fill="url(#LinearGradient)" fill-rule="nonzero" opacity="1" stroke="none"/>
</g>
<g opacity="1">
<path d="M375.844 581.188L357.094 631.875L394.125 631.875L375.844 581.188Z" fill="#ffffff" fill-rule="nonzero" opacity="1" stroke="none"/>
<path d="M393.75 488.094C319.639 488.094 259.561 549.341 259.344 624.969C259.343 625.106 259.312 625.238 259.312 625.375C259.313 663.717 274.742 698.344 299.562 723.25L291.344 764.719L288.094 781.188L304.594 773.875L348.406 754.469C362.595 759.67 377.808 762.656 393.75 762.656C422.6 762.655 449.321 753.361 471.219 737.562C471.225 737.56 471.244 737.569 471.25 737.562C474.373 735.309 477.377 732.897 480.281 730.375C483.185 727.853 485.989 725.22 488.687 722.469C488.442 722.097 488.244 721.689 488 721.312C484.749 716.309 481.801 711.098 479.062 705.75C466.735 681.682 459.657 654.397 459.656 625.375C459.656 621.923 459.769 618.495 459.969 615.094C460.293 609.555 460.952 604.102 461.781 598.719C461.788 598.678 461.775 598.634 461.781 598.594C461.871 598.012 461.936 597.424 462.031 596.844C462.043 596.771 462.05 596.698 462.062 596.625C462.075 596.55 462.112 596.481 462.125 596.406C462.938 591.565 463.957 586.821 465.156 582.125C465.431 581.047 465.706 579.976 466 578.906C466.006 578.884 466.022 578.865 466.031 578.844C466.04 578.812 466.054 578.782 466.062 578.75C467.366 574.034 468.828 569.392 470.5 564.844C470.515 564.804 470.517 564.759 470.531 564.719C470.598 564.539 470.677 564.365 470.75 564.188C470.781 564.104 470.812 564.022 470.844 563.938C470.934 563.696 471.034 563.46 471.125 563.219C473.018 558.221 475.066 553.302 477.375 548.531C488.291 559.745 496.864 573.05 502.5 587.781C500.907 593.643 499.664 599.647 498.812 605.781C498.387 608.848 498.064 611.962 497.844 615.094C497.624 618.225 497.5 621.372 497.5 624.562C497.499 638.828 499.615 652.599 503.562 665.531C505.837 672.983 508.825 680.093 512.25 686.938C514.371 691.176 516.741 695.244 519.25 699.219C519.258 699.231 519.274 699.239 519.281 699.25C519.314 699.301 519.343 699.356 519.375 699.406C519.956 700.323 520.555 701.222 521.156 702.125C521.177 702.156 521.198 702.186 521.219 702.219C521.24 702.25 521.26 702.282 521.281 702.312C523.857 706.171 526.554 709.945 529.5 713.5C531.736 716.199 534.092 718.803 536.531 721.312C542.659 727.61 549.371 733.324 556.594 738.312C577.937 753.056 603.663 761.656 631.344 761.656C635.645 761.656 639.904 761.422 644.094 761C648.287 760.574 652.422 759.953 656.5 759.156C656.593 759.133 656.688 759.116 656.781 759.094C656.791 759.092 656.802 759.096 656.812 759.094C660.152 758.434 663.448 757.641 666.688 756.719C669.926 755.796 673.108 754.741 676.25 753.594L719.625 774.062L735.531 781.188L732.469 765.25L724.469 723.688C727.354 720.82 730.063 717.776 732.688 714.656C733.474 713.719 734.206 712.74 734.969 711.781C736.687 709.625 738.347 707.418 739.938 705.156C740.973 703.675 741.989 702.18 742.969 700.656C743.009 700.593 743.052 700.531 743.094 700.469C744.036 699.005 744.925 697.502 745.812 696C745.843 695.948 745.876 695.897 745.906 695.844C747.144 693.734 748.374 691.62 749.5 689.438C749.618 689.21 749.73 688.98 749.844 688.75C749.971 688.501 750.094 688.25 750.219 688C750.254 687.929 750.277 687.852 750.312 687.781C752.571 683.254 754.601 678.605 756.375 673.812C756.403 673.738 756.441 673.668 756.469 673.594C756.499 673.511 756.532 673.427 756.562 673.344C758.344 668.475 759.861 663.463 761.094 658.344C761.964 654.736 762.692 651.057 763.281 647.344C763.293 647.271 763.3 647.197 763.312 647.125C763.324 647.052 763.33 646.979 763.344 646.906C763.402 646.531 763.466 646.155 763.531 645.781C763.579 645.457 763.643 645.138 763.688 644.812C763.691 644.782 763.683 644.749 763.688 644.719C763.689 644.709 763.686 644.697 763.688 644.688C763.691 644.665 763.71 644.647 763.719 644.625C763.72 644.615 763.718 644.604 763.719 644.594C763.727 644.531 763.742 644.469 763.75 644.406C763.761 644.323 763.77 644.239 763.781 644.156C764.127 641.611 764.421 639.059 764.625 636.469C764.63 636.407 764.621 636.343 764.625 636.281C764.628 636.249 764.648 636.22 764.656 636.188C764.658 636.167 764.654 636.146 764.656 636.125C764.783 634.47 764.839 632.795 764.906 631.125C764.916 630.917 764.928 630.709 764.938 630.5C765 628.785 765.187 627.105 765.188 625.375C765.187 625.269 765.163 625.166 765.156 625.062C765.152 625.032 765.155 625 765.156 624.969C765.143 620.242 764.908 615.572 764.438 610.969C763.974 606.435 763.259 601.986 762.375 597.594C762.373 597.584 762.379 597.572 762.375 597.562C762.363 597.5 762.358 597.437 762.344 597.375C762.215 596.739 762.013 596.133 761.875 595.5C761.096 591.919 760.236 588.376 759.188 584.906C758.733 583.398 758.16 581.954 757.656 580.469C756.786 577.903 755.921 575.338 754.906 572.844C754.216 571.143 753.412 569.509 752.656 567.844C751.62 565.559 750.591 563.277 749.438 561.062C748.77 559.781 748.055 558.534 747.344 557.281C747.262 557.135 747.176 556.99 747.094 556.844C745.759 554.486 744.401 552.143 742.938 549.875C742.905 549.824 742.879 549.77 742.844 549.719C741.959 548.353 740.994 547.049 740.062 545.719C738.702 543.774 737.332 541.836 735.875 539.969C735.866 539.957 735.853 539.949 735.844 539.938C734.549 538.279 733.211 536.657 731.844 535.062C730.43 533.413 728.989 531.797 727.5 530.219C726.199 528.838 724.857 527.511 723.5 526.188C721.788 524.516 720.048 522.89 718.25 521.312C717.972 521.068 717.686 520.836 717.406 520.594C716.27 519.612 715.137 518.63 713.969 517.688C712.207 516.265 710.395 514.926 708.562 513.594C708.158 513.299 707.748 513.012 707.344 512.719C706.148 511.869 704.975 510.998 703.75 510.188C701.932 508.983 700.064 507.865 698.188 506.75C696.409 505.693 694.641 504.631 692.812 503.656C692.804 503.652 692.79 503.661 692.781 503.656C690.865 502.636 688.906 501.71 686.938 500.781C685.131 499.93 683.348 499.054 681.5 498.281C681.47 498.269 681.437 498.262 681.406 498.25C679.309 497.377 677.148 496.641 675 495.875C673.142 495.213 671.3 494.518 669.406 493.938C667.056 493.217 664.655 492.615 662.25 492.031C662.083 491.99 661.917 491.947 661.75 491.906C660.217 491.536 658.709 491.098 657.156 490.781C653.893 490.117 650.563 489.668 647.219 489.25C646.756 489.192 646.3 489.11 645.844 489.031C645.276 488.966 644.726 488.839 644.156 488.781C644.105 488.776 644.051 488.786 644 488.781C639.639 488.345 635.223 488.095 630.75 488.094C625.831 488.094 620.998 488.44 616.219 488.969C616.209 488.97 616.198 488.968 616.188 488.969C615.373 489.059 614.56 489.145 613.75 489.25C610.943 489.614 608.218 490.212 605.469 490.75C603.934 491.052 602.361 491.239 600.844 491.594C599.786 491.84 598.735 492.103 597.688 492.375C593.471 493.472 589.328 494.756 585.281 496.25C584.396 496.576 583.533 496.936 582.656 497.281C578.45 498.937 574.303 500.719 570.312 502.781C567.718 504.122 565.183 505.56 562.688 507.062C561.579 507.743 560.463 508.413 559.375 509.125C559.305 509.17 559.226 509.203 559.156 509.25C557.77 510.144 556.414 511.087 555.062 512.031C554.474 512.45 553.926 512.915 553.344 513.344C550.25 515.623 547.247 518.014 544.344 520.531C541.44 523.049 538.635 525.694 535.969 528.469C538.194 531.848 540.268 535.314 542.219 538.875C542.223 538.883 542.214 538.899 542.219 538.906C544.165 542.459 546.003 546.098 547.75 549.781C558.608 572.671 564.875 598.252 564.875 625.375C564.875 653.816 558.026 680.567 546.156 704.281C535.251 692.236 526.783 678.052 521.75 662.375C521.747 662.366 521.753 662.353 521.75 662.344C525.108 650.333 527 637.678 527 624.562C527 621.639 526.907 618.746 526.719 615.875C526.506 612.624 526.1 609.432 525.656 606.25C525.653 606.23 525.655 606.209 525.656 606.188C525.653 606.167 525.659 606.145 525.656 606.125C525.648 606.062 525.634 606 525.625 605.938C524.908 600.794 523.98 595.709 522.75 590.75C520.268 580.747 516.748 571.176 512.25 562.188C506.019 549.734 498.053 538.382 488.562 528.5C483.883 523.628 478.78 519.177 473.437 515.062C472.033 513.98 470.667 512.87 469.219 511.844C468.08 511.036 466.915 510.273 465.75 509.5C464.322 508.573 462.869 507.685 461.406 506.812C441.525 494.953 418.435 488.094 393.75 488.094ZM641.469 547.75L661.125 547.75L661.125 572.031L717 572.031L717 590.344L697.562 590.344C687.094 634.122 666.187 651.969 666.188 651.969C679.276 666.664 710.09 674.594 715.219 676.375L705.312 695.062C705.312 695.062 679.459 689.231 651.531 666.656C626.194 690.167 597.75 695.062 597.75 695.062L587.906 676.375C587.906 676.375 613.905 673.311 637.469 652.562C637.469 652.562 613.978 627.126 610.938 607.906L629.719 605.344C636.689 623.861 651.531 639.094 651.531 639.094C651.531 639.094 669.398 623.838 676.5 590.344L586.031 590.344L586.031 572.031L641.469 572.031L641.469 547.75ZM362.344 554.438L389.75 554.438L439.875 683.344L413.5 683.344L402.437 653.781L348.844 653.781L338.156 683.344L311.781 683.344L362.344 554.438Z" fill="#ffffff" fill-rule="nonzero" opacity="1" stroke="none"/>
</g>
</svg>
